<svg width="41" height="41" viewBox="0 0 41 41" fill="none" xmlns="http://www.w3.org/2000/svg">
<path d="M26.1464 18.6486C25.8689 18.6475 25.5942 18.7043 25.3399 18.8155C25.0857 18.9266 24.8575 19.0897 24.6699 19.2942C24.4823 19.4986 24.3394 19.7401 24.2505 20.0029C24.1616 20.2658 24.1286 20.5443 24.1536 20.8207H28.2587C28.2852 20.534 28.2493 20.2449 28.1533 19.9734C28.0574 19.7019 27.9038 19.4544 27.703 19.2479C27.5023 19.0415 27.2592 18.881 26.9904 18.7776C26.7217 18.6741 26.4337 18.6301 26.1464 18.6486Z" fill="#D1D1D1"/>
<path d="M15.6445 20.8607H13.1934V24.7266H15.1861C17.1789 24.7266 18.0557 24.069 18.0557 22.7339C18.0557 21.3987 17.1391 20.8607 15.6445 20.8607V20.8607Z" fill="#D1D1D1"/>
<path d="M17.3782 17.3135C17.3782 16.2574 16.6807 15.6197 15.485 15.6197H13.1934V19.0871H14.8872C16.6608 19.0871 17.3782 18.4494 17.3782 17.3135Z" fill="#D1D1D1"/>
<path d="M20.6465 0.335022C16.7052 0.335022 12.8523 1.50376 9.57524 3.69345C6.29814 5.88314 3.74395 8.99543 2.23567 12.6367C0.727384 16.2781 0.332749 20.2849 1.10166 24.1505C1.87058 28.0161 3.76851 31.5669 6.55546 34.3538C9.3424 37.1408 12.8932 39.0387 16.7588 39.8076C20.6244 40.5765 24.6312 40.1819 28.2725 38.6736C31.9138 37.1653 35.0261 34.6111 37.2158 31.334C39.4055 28.0569 40.5742 24.2041 40.5742 20.2628C40.5742 17.6458 40.0588 15.0545 39.0573 12.6367C38.0559 10.219 36.588 8.02218 34.7375 6.17172C32.8871 4.32126 30.6903 2.85339 28.2725 1.85193C25.8548 0.850468 23.2635 0.335022 20.6465 0.335022ZM16.0631 26.6396H10.6826V13.6866H16.0631C18.3947 13.6866 19.9291 14.9022 19.9291 16.875C19.9566 17.5378 19.747 18.1887 19.338 18.711C18.929 19.2332 18.3473 19.5926 17.6972 19.7247C18.1092 19.7343 18.5149 19.8278 18.8895 19.9995C19.264 20.1713 19.5996 20.4177 19.8757 20.7236C20.1518 21.0295 20.3626 21.3886 20.4951 21.7788C20.6276 22.1689 20.6791 22.5821 20.6465 22.9929C20.6465 25.3045 18.6537 26.6396 16.0631 26.6396ZM23.1375 14.683H29.1158V15.6794H23.1375V14.683ZM30.6104 22.3552H24.0342V22.6342C23.9999 22.937 24.031 23.2436 24.1252 23.5334C24.2195 23.8232 24.3748 24.0895 24.5806 24.3142C24.7864 24.5389 25.0381 24.7169 25.3185 24.8362C25.5989 24.9554 25.9017 25.0132 26.2063 25.0056C26.6341 25.072 27.0714 24.9815 27.4377 24.7508C27.8039 24.5201 28.0744 24.1646 28.1991 23.7501H30.6104C30.3957 24.7067 29.8359 25.5506 29.0381 26.1204C28.2404 26.6902 27.2606 26.9461 26.2861 26.8389C25.6632 26.9018 25.0342 26.8275 24.4432 26.6211C23.8522 26.4147 23.3136 26.0814 22.8652 25.6445C22.4169 25.2076 22.0698 24.6777 21.8483 24.0922C21.6268 23.5067 21.5363 22.8798 21.5831 22.2555V21.3787C21.5408 20.7739 21.6298 20.167 21.844 19.5997C22.0582 19.0325 22.3926 18.5183 22.8241 18.0924C23.2557 17.6665 23.7743 17.339 24.3444 17.1323C24.9144 16.9256 25.5224 16.8446 26.1266 16.895C26.7289 16.8564 27.3324 16.9472 27.8966 17.1615C28.4608 17.3757 28.9725 17.7083 29.3974 18.137C29.8222 18.5656 30.1503 19.0802 30.3596 19.6463C30.5688 20.2124 30.6543 20.8167 30.6104 21.4186V22.3552Z" fill="white" fill-opacity="0.81"/>
</svg>
