<svg width="50" height="45" viewBox="0 0 50 45" fill="none" xmlns="http://www.w3.org/2000/svg">
<path d="M8.34375 13.8534H23.4558" stroke="#7B4AE2" stroke-width="1.09906" stroke-linecap="round" stroke-linejoin="round"/>
<path d="M31.6992 13.8534H46.8113" stroke="#7B4AE2" stroke-width="1.09906" stroke-linecap="round" stroke-linejoin="round"/>
<path d="M27.5766 17.9749C29.8528 17.9749 31.698 16.1296 31.698 13.8534C31.698 11.5772 29.8528 9.73193 27.5766 9.73193C25.3003 9.73193 23.4551 11.5772 23.4551 13.8534C23.4551 16.1296 25.3003 17.9749 27.5766 17.9749Z" stroke="#7B4AE2" stroke-width="1.09906" stroke-linecap="round" stroke-linejoin="round"/>
<path d="M12.4652 34.4607C14.7415 34.4607 16.5867 32.6155 16.5867 30.3392C16.5867 28.063 14.7415 26.2178 12.4652 26.2178C10.189 26.2178 8.34375 28.063 8.34375 30.3392C8.34375 32.6155 10.189 34.4607 12.4652 34.4607Z" stroke="#7B4AE2" stroke-width="1.09906" stroke-linecap="round" stroke-linejoin="round"/>
<path d="M42.6879 34.4607C44.9641 34.4607 46.8094 32.6155 46.8094 30.3392C46.8094 28.063 44.9641 26.2178 42.6879 26.2178C40.4117 26.2178 38.5664 28.063 38.5664 30.3392C38.5664 32.6155 40.4117 34.4607 42.6879 34.4607Z" stroke="#7B4AE2" stroke-width="1.09906" stroke-linecap="round" stroke-linejoin="round"/>
<path d="M31.6641 14.42C34.3839 15.1836 36.8355 16.6934 38.7415 18.7784C40.6475 20.8635 41.9317 23.4405 42.4486 26.2178" stroke="#7B4AE2" stroke-width="1.09906" stroke-linecap="round" stroke-linejoin="round"/>
<path d="M12.707 26.2178C13.2239 23.4405 14.5081 20.8635 16.4141 18.7784C18.3201 16.6934 20.7718 15.1836 23.4916 14.42" stroke="#7B4AE2" stroke-width="1.09906" stroke-linecap="round" stroke-linejoin="round"/>
<circle cx="13.8379" cy="23.4702" r="13.7382" fill="#7B4AE2" fill-opacity="0.2"/>
</svg>
