<svg width="42" height="41" viewBox="0 0 42 41" fill="none" xmlns="http://www.w3.org/2000/svg">
<path fill-rule="evenodd" clip-rule="evenodd" d="M21.2873 0.335022C9.9987 0.335022 0.855469 9.47825 0.855469 20.7668C0.855469 29.8079 6.70407 37.4443 14.8257 40.1515C15.8473 40.3303 16.2304 39.7173 16.2304 39.181C16.2304 38.6957 16.2049 37.0867 16.2049 35.3756C11.0714 36.3205 9.7433 34.1241 9.33466 32.9748C9.10481 32.3874 8.10876 30.5741 7.2404 30.0888C6.52529 29.7057 5.5037 28.7608 7.21487 28.7352C8.82387 28.7097 9.97316 30.2165 10.3563 30.8295C12.1951 33.9198 15.1322 33.0514 16.307 32.5151C16.4858 31.187 17.0221 30.2931 17.6095 29.7824C13.0635 29.2716 8.31307 27.5093 8.31307 19.6942C8.31307 17.4722 9.10481 15.6333 10.4073 14.2031C10.203 13.6923 9.4879 11.5981 10.6117 8.78868C10.6117 8.78868 12.3228 8.25234 16.2304 10.8829C17.8649 10.4232 19.6016 10.1934 21.3383 10.1934C23.075 10.1934 24.8117 10.4232 26.4463 10.8829C30.3539 8.2268 32.065 8.78868 32.065 8.78868C33.1888 11.5981 32.4737 13.6923 32.2694 14.2031C33.5719 15.6333 34.3636 17.4467 34.3636 19.6942C34.3636 27.5349 29.5877 29.2716 25.0416 29.7824C25.7823 30.4208 26.4208 31.6468 26.4208 33.5622C26.4208 36.295 26.3952 38.4914 26.3952 39.181C26.3952 39.7173 26.7783 40.3558 27.7999 40.1515C35.8705 37.4443 41.7191 29.7824 41.7191 20.7668C41.7191 9.47825 32.5758 0.335022 21.2873 0.335022Z" fill="white" fill-opacity="0.81"/>
</svg>
