<svg width="1577" height="1328" viewBox="0 0 1577 1328" fill="none" xmlns="http://www.w3.org/2000/svg">
<g filter="url(#filter0_f_436_232)">
<path d="M935.013 851.591L818.296 783.411L684.532 772.595L616.666 724.082V709.332L597.978 701.465L573.717 610.668L586.503 613.945L582.241 589.361L569.127 586.084L566.176 589.361L555.357 577.233V563.138L539.292 561.5L533.391 553.305L514.375 548.716L519.621 517.904L516.343 503.809L506.179 494.631H486.836H481.262L477 479.225L489.131 462.836C494.813 462.726 506.179 462.18 506.179 460.869C506.179 459.23 496.999 452.019 496.999 450.707V444.152L530.112 409.734L523.227 399.573C525.085 395.311 529.063 386.199 530.112 383.839C531.162 381.479 530.55 372.585 530.112 368.433L535.03 360.238V346.143H549.128L560.275 350.732H567.488L563.554 343.193L573.717 333.687L580.274 338.932V348.766L633.059 304.842H639.288L642.566 302.22V293.697L671.745 275.341L690.761 255.674L686.499 252.396L684.204 239.612L690.761 232.073H696.99L693.712 226.173L696.99 219.617L704.859 204.211L707.809 192.083L713.711 188.15L693.712 181.594L704.859 132.098L716.334 119.642L756.66 134.393L762.561 129.476L784.2 137.998L776.987 116.692L761.578 107.514L768.79 98.9918C774.562 99.4726 785.212 100.377 786.964 100.586C786.423 100.238 788.335 97.9082 789.445 96.6972L782.56 91.4526L792.724 82.6024L794.035 76.7022H791.084L794.035 69.8187L780.921 68.5075L787.15 52.446L796.33 49.4959L801.576 45.2346L800.264 36.0566L809.444 32.7787L814.034 18.6839L821.247 9.83362L837.64 0L844.525 2.95009L842.885 15.406L853.705 30.4842L853.049 50.4792L848.131 55.396L846.82 60.6406H842.885L834.361 76.7022L825.837 88.8303L831.411 90.1415L829.771 109.153L849.443 126.854L876.327 125.543L923.538 146.849L917.636 164.221L947.471 235.023L934.029 265.835L932.062 298.942L1027.47 350.732L1025.17 362.205H1020.91L1049.11 388.756H1057.3L1061.56 404.162L1081.24 425.468L1063.2 542.816L1095.66 580.839L1081.56 585.1L1070.09 596.901L1077.96 602.801V631.318L1095.66 646.069L1084.84 667.375L1090.74 685.075L1097.63 687.37L1099.92 712.937L1090.74 738.505L1079.6 790.623L1060.58 808.323L1052.06 802.095L982.224 790.623L962.88 802.095L935.013 851.591Z" fill="url(#paint0_angular_436_232)" fill-opacity="0.8"/>
</g>
<defs>
<filter id="filter0_f_436_232" x="0.758972" y="-476.241" width="1575.41" height="1804.07" filterUnits="userSpaceOnUse" color-interpolation-filters="sRGB">
<feFlood flood-opacity="0" result="BackgroundImageFix"/>
<feBlend mode="normal" in="SourceGraphic" in2="BackgroundImageFix" result="shape"/>
<feGaussianBlur stdDeviation="238.121" result="effect1_foregroundBlur_436_232"/>
</filter>
<radialGradient id="paint0_angular_436_232" cx="0" cy="0" r="1" gradientUnits="userSpaceOnUse" gradientTransform="translate(788.462 425.796) rotate(90) scale(425.796 311.462)">
<stop stop-color="#00FF38"/>
<stop offset="1" stop-color="#0500FF"/>
</radialGradient>
</defs>
</svg>
