<svg width="40" height="41" viewBox="0 0 40 41" fill="none" xmlns="http://www.w3.org/2000/svg">
<g clip-path="url(#clip0_436_241)">
<path d="M19.9296 0.335083C30.936 0.335083 39.8575 9.25773 39.8575 20.2629C39.8575 31.2681 30.936 40.1906 19.9296 40.1906C8.92323 40.1906 0.00195312 31.2679 0.00195312 20.2629C0.00195312 9.25786 8.92337 0.335083 19.9296 0.335083Z" fill="white" fill-opacity="0.81"/>
<path d="M11.2329 27.7157H14.9644V15.2783H11.2329V27.7157ZM25.7702 14.8475C23.9593 14.8475 22.3389 15.5088 21.1894 16.9686V15.2374H17.4442V27.7159H21.1894V20.9678C21.1894 19.5417 22.4959 18.1505 24.1325 18.1505C25.769 18.1505 26.1726 19.5417 26.1726 20.933V27.7147H29.9041V20.6552C29.9039 15.7517 27.5824 14.8475 25.7702 14.8475ZM13.0812 14.0354C14.1125 14.0354 14.9495 13.1984 14.9495 12.1671C14.9495 11.1358 14.1125 10.299 13.0812 10.299C12.0499 10.299 11.2129 11.136 11.2129 12.1672C11.2129 13.1985 12.0499 14.0354 13.0812 14.0354Z" fill="#090E16"/>
</g>
<defs>
<clipPath id="clip0_436_241">
<rect width="39.8555" height="39.8555" fill="white" transform="translate(0 0.335022)"/>
</clipPath>
</defs>
</svg>
