<svg width="27" height="26" viewBox="0 0 27 26" fill="none" xmlns="http://www.w3.org/2000/svg">
<path d="M11.5379 14.4987H4.81618C4.60645 14.4987 4.40531 14.4154 4.25701 14.2671C4.10871 14.1188 4.02539 13.9176 4.02539 13.7079V7.38161C4.02539 7.17188 4.10871 6.97074 4.25701 6.82244C4.40531 6.67414 4.60645 6.59082 4.81618 6.59082H10.7471C10.9568 6.59082 11.158 6.67414 11.3063 6.82244C11.4546 6.97074 11.5379 7.17188 11.5379 7.38161V16.0803C11.5379 17.1289 11.1213 18.1346 10.3798 18.8761C9.63828 19.6176 8.63258 20.0342 7.58393 20.0342" stroke="#7B4AE2" stroke-opacity="0.5" stroke-width="0.790787" stroke-linecap="round" stroke-linejoin="round"/>
<path d="M23.0037 14.4987H16.282C16.0723 14.4987 15.8711 14.4154 15.7228 14.2671C15.5745 14.1188 15.4912 13.9176 15.4912 13.7079V7.38161C15.4912 7.17188 15.5745 6.97074 15.7228 6.82244C15.8711 6.67414 16.0723 6.59082 16.282 6.59082H22.2129C22.4226 6.59082 22.6238 6.67414 22.7721 6.82244C22.9204 6.97074 23.0037 7.17188 23.0037 7.38161V16.0803C23.0037 17.1289 22.5871 18.1346 21.8456 18.8761C21.1041 19.6176 20.0984 20.0342 19.0498 20.0342" stroke="#7B4AE2" stroke-opacity="0.5" stroke-width="0.790787" stroke-linecap="round" stroke-linejoin="round"/>
</svg>
