<svg width="479" height="479" viewBox="0 0 479 479" fill="none" xmlns="http://www.w3.org/2000/svg">
<g filter="url(#filter0_d_514_16734)">
<circle cx="239.286" cy="225.286" r="64.2857" fill="white" fill-opacity="0.02" shape-rendering="crispEdges"/>
</g>
<path d="M263.335 213.979C262.586 213.721 261.809 213.477 261.009 213.246C261.141 212.71 261.261 212.18 261.369 211.66C263.129 203.113 261.978 196.228 258.047 193.961C254.278 191.787 248.113 194.054 241.887 199.472C241.289 199.993 240.688 200.544 240.088 201.123C239.688 200.74 239.289 200.37 238.891 200.017C232.366 194.223 225.826 191.782 221.899 194.056C218.133 196.235 217.018 202.708 218.603 210.808C218.756 211.59 218.935 212.389 219.137 213.202C218.211 213.464 217.318 213.744 216.463 214.042C208.813 216.709 203.928 220.889 203.928 225.225C203.928 229.703 209.172 234.194 217.14 236.917C217.769 237.132 218.421 237.336 219.094 237.528C218.875 238.407 218.686 239.268 218.526 240.108C217.015 248.067 218.195 254.387 221.951 256.553C225.83 258.79 232.341 256.49 238.68 250.949C239.181 250.511 239.684 250.046 240.188 249.559C240.841 250.188 241.493 250.783 242.141 251.341C248.282 256.626 254.347 258.759 258.099 256.587C261.975 254.344 263.234 247.555 261.599 239.295C261.474 238.664 261.329 238.019 261.166 237.363C261.623 237.228 262.072 237.089 262.509 236.944C270.793 234.199 276.182 229.763 276.182 225.225C276.182 220.874 271.139 216.666 263.335 213.979ZM261.539 234.014C261.144 234.145 260.738 234.271 260.325 234.394C259.411 231.499 258.176 228.42 256.666 225.24C258.107 222.135 259.294 219.096 260.183 216.22C260.922 216.434 261.639 216.66 262.33 216.898C269.017 219.199 273.095 222.603 273.095 225.225C273.095 228.018 268.691 231.644 261.539 234.014ZM258.571 239.894C259.294 243.547 259.397 246.849 258.918 249.43C258.488 251.75 257.623 253.297 256.553 253.916C254.276 255.234 249.406 253.521 244.154 249.002C243.552 248.483 242.946 247.93 242.338 247.345C244.374 245.118 246.408 242.53 248.394 239.655C251.887 239.345 255.187 238.838 258.18 238.146C258.327 238.741 258.458 239.324 258.571 239.894ZM228.561 253.688C226.336 254.474 224.564 254.496 223.493 253.879C221.214 252.564 220.267 247.49 221.559 240.683C221.707 239.904 221.883 239.103 222.086 238.285C225.046 238.939 228.322 239.41 231.823 239.694C233.823 242.507 235.916 245.093 238.026 247.357C237.565 247.802 237.106 248.225 236.649 248.625C233.846 251.075 231.037 252.814 228.561 253.688ZM218.138 233.997C214.615 232.793 211.706 231.227 209.711 229.52C207.919 227.985 207.014 226.461 207.014 225.225C207.014 222.594 210.937 219.238 217.479 216.957C218.273 216.68 219.104 216.419 219.966 216.174C220.87 219.116 222.056 222.191 223.487 225.3C222.038 228.456 220.835 231.58 219.922 234.555C219.307 234.378 218.711 234.192 218.138 233.997ZM221.632 210.215C220.274 203.276 221.176 198.041 223.445 196.727C225.863 195.327 231.208 197.323 236.841 202.325C237.202 202.645 237.563 202.979 237.926 203.326C235.826 205.58 233.752 208.146 231.77 210.943C228.372 211.258 225.119 211.764 222.129 212.441C221.941 211.685 221.774 210.942 221.632 210.215ZM252.799 217.911C252.084 216.676 251.35 215.47 250.602 214.298C252.907 214.589 255.116 214.976 257.19 215.449C256.568 217.445 255.791 219.532 254.878 221.671C254.222 220.427 253.529 219.172 252.799 217.911ZM240.089 205.532C241.513 207.074 242.939 208.796 244.341 210.665C242.928 210.598 241.497 210.563 240.055 210.563C238.626 210.563 237.206 210.597 235.801 210.663C237.205 208.812 238.643 207.092 240.089 205.532ZM227.298 217.932C226.584 219.171 225.903 220.419 225.258 221.669C224.359 219.537 223.59 217.441 222.962 215.417C225.024 214.955 227.222 214.578 229.513 214.292C228.754 215.476 228.014 216.69 227.298 217.932V217.932ZM229.579 236.378C227.212 236.114 224.981 235.756 222.92 235.307C223.558 233.247 224.344 231.106 225.262 228.928C225.909 230.178 226.592 231.426 227.31 232.667H227.31C228.042 233.931 228.801 235.17 229.579 236.378ZM240.175 245.136C238.712 243.557 237.253 241.811 235.827 239.933C237.211 239.987 238.621 240.015 240.055 240.015C241.528 240.015 242.983 239.982 244.416 239.918C243.009 241.83 241.589 243.579 240.175 245.136ZM254.907 228.817C255.873 231.019 256.687 233.148 257.334 235.173C255.239 235.651 252.977 236.036 250.594 236.322C251.344 235.134 252.084 233.907 252.812 232.646C253.548 231.369 254.246 230.091 254.907 228.817ZM250.138 231.104C249.008 233.062 247.849 234.932 246.672 236.696C244.528 236.85 242.312 236.929 240.055 236.929C237.806 236.929 235.619 236.859 233.513 236.722C232.288 234.934 231.104 233.059 229.981 231.121H229.982C228.862 229.187 227.832 227.238 226.899 225.299C227.832 223.356 228.859 221.404 229.972 219.474L229.972 219.475C231.088 217.54 232.262 215.674 233.475 213.897C235.624 213.735 237.828 213.65 240.055 213.65H240.055C242.292 213.65 244.498 213.735 246.646 213.899C247.841 215.663 249.007 217.523 250.128 219.458C251.261 221.415 252.301 223.354 253.243 225.255C252.304 227.189 251.266 229.148 250.138 231.104ZM256.505 196.635C258.925 198.03 259.866 203.658 258.346 211.037C258.249 211.508 258.139 211.987 258.021 212.473C255.023 211.782 251.768 211.267 248.36 210.947C246.375 208.12 244.317 205.55 242.252 203.324C242.807 202.79 243.362 202.281 243.914 201.8C249.248 197.158 254.234 195.325 256.505 196.635ZM240.055 218.773C243.618 218.773 246.507 221.661 246.507 225.225C246.507 228.788 243.618 231.677 240.055 231.677C236.492 231.677 233.603 228.788 233.603 225.225C233.603 221.661 236.492 218.773 240.055 218.773Z" fill="white" fill-opacity="0.21"/>
<defs>
<filter id="filter0_d_514_16734" x="0.258377" y="0.237707" width="478.055" height="478.055" filterUnits="userSpaceOnUse" color-interpolation-filters="sRGB">
<feFlood flood-opacity="0" result="BackgroundImageFix"/>
<feColorMatrix in="SourceAlpha" type="matrix" values="0 0 0 0 0 0 0 0 0 0 0 0 0 0 0 0 0 0 127 0" result="hardAlpha"/>
<feOffset dy="13.9793"/>
<feGaussianBlur stdDeviation="87.3708"/>
<feComposite in2="hardAlpha" operator="out"/>
<feColorMatrix type="matrix" values="0 0 0 0 0 0 0 0 0 0 0 0 0 0 0 0 0 0 0.5 0"/>
<feBlend mode="normal" in2="BackgroundImageFix" result="effect1_dropShadow_514_16734"/>
<feBlend mode="normal" in="SourceGraphic" in2="effect1_dropShadow_514_16734" result="shape"/>
</filter>
</defs>
</svg>
