<svg width="567" height="189" viewBox="0 0 567 189" fill="none" xmlns="http://www.w3.org/2000/svg">
<path d="M90.8983 80.9139C90.2677 80.9139 89.7518 80.7993 89.3506 80.57C89.0066 80.2834 88.8633 79.8248 88.9206 79.1943C89.8951 78.3344 90.6116 77.6179 91.0702 77.0447C91.5861 76.4141 91.9301 75.9269 92.102 75.5829C92.274 75.1817 92.3886 74.8091 92.446 74.4652C92.5606 74.1212 92.7039 73.7773 92.8759 73.4334C93.0478 73.0321 93.3631 72.5449 93.8217 71.9716C94.4522 71.7997 95.0541 71.857 95.6274 72.1436C96.2006 72.3729 96.6018 72.8028 96.8311 73.4334C97.0604 74.1785 97.1464 74.8664 97.0891 75.497C96.9171 76.8154 96.2006 78.0765 94.9395 79.2802C93.7357 80.4267 92.3886 80.9712 90.8983 80.9139ZM58.5685 126.829C60.5747 125.396 62.0938 124.221 63.1256 123.304C64.1001 122.444 64.9312 121.498 65.6191 120.466C66.307 119.492 67.1382 118.145 68.1126 116.425C68.4566 115.852 68.8292 115.193 69.2304 114.447C71.3513 110.894 73.3863 107.483 75.3352 104.215C76.6537 101.98 77.9434 99.8016 79.2045 97.6807C79.6631 96.8782 80.0357 96.219 80.3223 95.7031C80.7235 95.1299 80.9815 94.6999 81.0961 94.4133C81.2108 94.1267 81.2108 93.8688 81.0961 93.6395C80.9815 93.4675 80.9242 92.9516 80.9242 92.0918C80.9815 91.1746 81.5547 89.9135 82.6438 88.3085C83.733 86.7035 84.8508 85.5284 85.9972 84.7832C87.1436 84.038 88.1754 83.7227 89.0926 83.8374C90.0098 83.8947 90.6116 84.6685 90.8983 86.1589C90.8409 86.6175 90.6976 87.0761 90.4683 87.5347C90.2964 87.9359 90.1817 88.1939 90.1244 88.3085C88.5767 90.8307 86.9144 93.6681 85.1374 96.8209C84.5068 97.8527 83.8763 98.9418 83.2457 100.088C82.6152 101.12 82.0133 102.181 81.4401 103.27C80.0643 105.677 78.574 108.171 76.9689 110.75C75.2493 113.444 74.848 114.705 75.7652 114.533C76.625 114.419 78.4593 113.473 81.2681 111.696C84.7648 109.518 89.1499 107.196 94.4236 104.731C96.0859 104.043 97.0891 104.015 97.433 104.645C97.8343 105.219 97.3184 105.906 95.8853 106.709C89.5225 109.976 82.7585 114.362 75.5932 119.864C74.9627 120.323 74.4181 120.753 73.9595 121.154C72.1825 122.473 70.8068 123.562 69.8323 124.422C68.8578 125.281 67.9407 126.285 67.0808 127.431C66.221 128.635 65.0746 130.354 63.6415 132.59C57.8519 141.819 51.8044 150.561 45.499 158.815C39.1362 167.069 32.8021 173.862 26.4966 179.193C20.1912 184.581 14.1723 187.505 8.44009 187.963C6.20452 188.078 4.51351 187.677 3.36706 186.76C1.36078 185.04 0.988188 182.718 2.24928 179.795C3.45305 176.929 5.23004 174.091 7.58026 171.283C9.93047 168.474 11.8508 166.324 13.3411 164.834C13.5131 164.719 13.6564 164.576 13.7711 164.404C25.5795 152.481 40.5119 139.956 58.5685 126.829ZM52.2057 141.618C52.3203 141.504 52.4063 141.389 52.4636 141.274C55.1578 137.376 56.5908 135.026 56.7628 134.224C56.9348 133.478 55.4157 134.31 52.2057 136.717C37.9898 147.608 26.296 157.926 17.1244 167.671C17.0671 167.729 16.9811 167.815 16.8665 167.929C16.2359 168.617 15.1181 169.821 13.5131 171.541C11.8508 173.318 10.2457 175.209 8.69804 177.215C7.09302 179.222 6.06121 180.913 5.60264 182.288C5.08673 183.722 5.60264 184.438 7.15034 184.438C14.029 183.808 21.3376 179.48 29.0761 171.455C36.7573 163.429 44.4672 153.484 52.2057 141.618ZM117.725 84.4392C120.935 85.1271 122.225 86.5028 121.594 88.5665C120.964 90.6301 119.301 92.7796 116.607 95.0152C113.913 97.2508 111.104 98.9418 108.181 100.088C105.315 101.177 103.223 101.12 101.904 99.9163C100.987 101.063 99.9265 102.582 98.7228 104.473C97.5763 106.308 96.9171 107.941 96.7451 109.374C96.7451 111.553 98.2355 112.499 101.216 112.212C104.197 111.925 107.751 110.979 111.878 109.374C116.005 107.769 119.789 106.136 123.228 104.473C126.667 102.754 128.846 101.579 129.763 100.948C130.451 100.489 131.081 100.289 131.654 100.346C132.285 100.404 132.543 100.719 132.428 101.292C132.371 101.865 131.626 102.668 130.193 103.7C128.473 104.903 125.55 106.623 121.422 108.859C117.353 111.037 113.025 112.928 108.439 114.533C103.853 116.138 99.9552 116.683 96.7451 116.167C93.5351 115.651 91.9874 113.301 92.102 109.117C92.3886 106.308 93.9937 102.954 96.9171 99.0564C99.8405 95.1585 103.223 91.7478 107.063 88.8244C110.961 85.8436 114.515 84.3819 117.725 84.4392ZM116.005 89.1683C115.49 89.3403 114.601 89.8275 113.34 90.6301C112.079 91.3752 110.732 92.2351 109.299 93.2096C107.923 94.184 106.719 95.1012 105.687 95.961C104.656 96.8209 104.054 97.4514 103.882 97.8527C103.71 98.2539 104.226 98.2539 105.429 97.8527C107.092 97.2221 109.127 96.133 111.534 94.5853C113.942 92.9803 115.776 91.5186 117.037 90.2001C117.61 89.5696 117.84 89.1683 117.725 88.9964C117.668 88.8244 117.095 88.8817 116.005 89.1683ZM151.603 84.4392C154.813 85.1271 156.102 86.5028 155.472 88.5665C154.841 90.6301 153.179 92.7796 150.485 95.0152C147.791 97.2508 144.982 98.9418 142.058 100.088C139.192 101.177 137.1 101.12 135.782 99.9163C134.864 101.063 133.804 102.582 132.6 104.473C131.454 106.308 130.795 107.941 130.623 109.374C130.623 111.553 132.113 112.499 135.094 112.212C138.075 111.925 141.629 110.979 145.756 109.374C149.883 107.769 153.666 106.136 157.106 104.473C160.545 102.754 162.723 101.579 163.64 100.948C164.328 100.489 164.959 100.289 165.532 100.346C166.162 100.404 166.42 100.719 166.306 101.292C166.248 101.865 165.503 102.668 164.07 103.7C162.351 104.903 159.427 106.623 155.3 108.859C151.23 111.037 146.902 112.928 142.316 114.533C137.731 116.138 133.833 116.683 130.623 116.167C127.413 115.651 125.865 113.301 125.98 109.117C126.266 106.308 127.871 102.954 130.795 99.0564C133.718 95.1585 137.1 91.7478 140.941 88.8244C144.839 85.8436 148.393 84.3819 151.603 84.4392ZM149.883 89.1683C149.367 89.3403 148.479 89.8275 147.217 90.6301C145.956 91.3752 144.609 92.2351 143.176 93.2096C141.8 94.184 140.597 95.1012 139.565 95.961C138.533 96.8209 137.931 97.4514 137.759 97.8527C137.587 98.2539 138.103 98.2539 139.307 97.8527C140.969 97.2221 143.004 96.133 145.412 94.5853C147.819 92.9803 149.654 91.5186 150.915 90.2001C151.488 89.5696 151.717 89.1683 151.603 88.9964C151.545 88.8244 150.972 88.8817 149.883 89.1683ZM160.631 54.431C160.516 54.9469 160.086 55.2335 159.341 55.2908C158.596 55.2908 157.793 55.1189 156.934 54.7749C156.074 54.431 155.443 54.0011 155.042 53.4852C154.641 52.912 154.755 52.3101 155.386 51.6795C156.016 51.049 157.421 50.4471 159.599 49.8739C170.433 48.0396 181.066 46.4632 191.499 45.1448C193.505 44.9155 195.024 44.6862 196.056 44.4569C197.145 44.2276 197.976 43.855 198.55 43.3391C199.18 42.7659 199.811 41.8774 200.441 40.6736C201.473 38.8967 202.533 37.1197 203.623 35.3427C203.852 34.9414 204.081 34.5402 204.31 34.1389C213.195 19.2924 219.214 10.4361 222.367 7.57C227.297 3.04154 229.418 3.78673 228.73 9.80557C227.583 17.6587 223.571 27.4035 216.692 39.04C216.692 39.0973 216.663 39.1833 216.606 39.2979C215.574 40.9029 215.087 41.8774 215.144 42.2214C215.202 42.5653 215.861 42.6513 217.122 42.4793C217.351 42.4793 217.552 42.4793 217.724 42.4793C218.354 42.422 218.985 42.3933 219.616 42.3933C233.889 41.4762 248.563 41.0749 263.639 41.1895C264.614 41.1895 265.244 41.4188 265.531 41.8774C265.817 42.2787 265.789 42.6799 265.445 43.0812C265.101 43.4251 264.413 43.5684 263.381 43.5111C247.216 43.2245 231.539 43.9697 216.348 45.7467C215.832 45.804 215.374 45.8613 214.972 45.9186C214.113 45.9186 213.425 46.0333 212.909 46.2626C212.393 46.4919 211.848 47.0651 211.275 47.9822C204.11 58.9881 196.601 69.3348 188.747 79.0223C180.952 88.7098 174.446 95.9324 169.229 100.69C168.943 100.977 168.713 101.177 168.541 101.292C168.369 101.407 168.226 101.493 168.111 101.55C167.997 101.607 167.882 101.693 167.767 101.808C167.653 101.923 167.51 102.095 167.338 102.324C167.166 102.553 166.936 102.926 166.65 103.442C153.924 123.734 141.113 143.968 128.215 164.146C129.247 164.146 129.734 164.519 129.677 165.264C129.562 166.066 129.104 166.783 128.301 167.413C125.779 169.305 124.031 169.878 123.056 169.133C122.082 168.388 122.139 166.754 123.228 164.232C126.209 159.531 129.19 154.86 132.17 150.217C152.978 117.887 173.442 85.2131 193.563 52.1954C193.792 51.7369 194.021 51.3356 194.25 50.9917C194.938 50.0172 195.254 49.358 195.196 49.014C195.196 48.6128 194.508 48.5268 193.133 48.7561C182.471 50.3038 171.637 52.0235 160.631 53.9151C160.631 54.0871 160.631 54.259 160.631 54.431ZM205.514 40.3297C204.941 41.3042 204.54 42.1067 204.31 42.7373C204.081 43.3678 204.224 43.6544 204.74 43.5971C205.6 43.4824 206.46 43.3965 207.32 43.3391C207.893 43.3391 208.352 43.2818 208.696 43.1672C209.04 43.0525 209.355 42.8232 209.641 42.4793C209.928 42.078 210.301 41.5048 210.759 40.7596C217.122 29.8684 221.536 20.2382 224.001 11.8692C220.905 15.3085 215.546 23.4483 207.922 36.2885C207.578 36.8617 207.234 37.4349 206.89 38.0082C206.431 38.7534 205.973 39.5272 205.514 40.3297ZM200.097 49.358C198.148 52.568 196.113 55.95 193.992 59.504C188.891 68.3317 183.445 77.1593 177.656 85.9869C174.675 90.4581 174.875 90.8307 178.257 87.1047C186.913 77.016 195.884 64.663 205.17 50.0458C205.801 48.9567 206.231 48.2115 206.46 47.8103C206.689 47.3517 206.689 47.0937 206.46 47.0364C206.288 46.9218 205.916 46.8931 205.342 46.9504C205.285 46.9504 205.199 46.9504 205.084 46.9504C204.97 47.0078 204.826 47.0364 204.654 47.0364C203.68 47.0937 202.82 47.2657 202.075 47.5523C201.33 47.7816 200.671 48.3835 200.097 49.358ZM222.797 131.128C222.109 131.759 221.421 131.873 220.733 131.472C220.045 131.128 219.558 130.526 219.272 129.667C218.928 128.807 218.985 127.976 219.444 127.173C219.73 126.542 225.033 117.915 235.351 101.292C235.408 101.005 235.551 100.719 235.78 100.432C236.01 100.088 236.239 99.8016 236.468 99.5723C243.462 88.2798 251 76.3568 259.082 63.8032C267.164 51.1923 274.502 40.1864 281.094 30.7855C287.686 21.3847 292.186 15.8244 294.593 14.1047C296.943 13.5315 298.376 13.8468 298.892 15.0506C299.466 16.2543 299.494 17.888 298.978 19.9516C298.52 21.9579 297.889 23.9069 297.087 25.7985C296.341 27.6328 295.797 28.8939 295.453 29.5818C290.925 38.696 283.874 49.8452 274.301 63.0294C264.786 76.2135 253.493 88.9964 240.424 101.378C238.589 104.301 236.87 106.996 235.265 109.46C233.201 112.556 231.825 114.791 231.137 116.167C230.392 117.543 230.937 117.543 232.771 116.167C234.548 114.849 238.217 111.639 243.777 106.537C259.541 91.8625 271.091 83.2355 278.428 80.656C279.575 80.3694 280.32 80.5127 280.664 81.0859C281.065 81.6018 281.352 82.2897 281.524 83.1495C281.581 83.2641 281.61 83.4074 281.61 83.5794C281.839 85.4137 280.234 87.42 276.795 89.5983C273.355 91.7192 269.744 93.6681 265.961 95.4451C263.954 96.4196 262.292 97.2794 260.974 98.0246C259.999 98.8272 259.283 99.601 258.824 100.346C258.423 101.091 257.993 102.123 257.534 103.442C256.617 105.734 255.815 108.429 255.127 111.524C254.439 114.562 254.525 117.228 255.385 119.521C256.245 121.813 258.566 122.931 262.349 122.874C263.037 122.817 263.553 122.96 263.897 123.304C264.298 123.648 264.384 124.02 264.155 124.422C263.926 124.823 263.266 125.081 262.177 125.195C256.445 125.367 252.777 123.963 251.171 120.982C249.566 118.001 249.452 114.132 250.828 109.374C251.343 107.54 251.458 106.566 251.171 106.451C250.942 106.279 250.054 106.91 248.506 108.343C244.493 112.011 240.137 115.881 235.437 119.95C230.793 124.078 227.211 127.23 224.689 129.409C223.599 130.383 222.969 130.956 222.797 131.128ZM256.416 75.9269C253.894 79.7675 252.461 82.1177 252.117 82.9775C251.831 83.78 253.378 82.175 256.76 78.1625C264.728 68.8189 271.55 59.9053 277.224 51.4216C282.899 42.8806 287.313 35.4573 290.466 29.1519C291.67 26.7443 292.472 25.0247 292.873 23.9929C293.275 22.961 293.361 22.4451 293.131 22.4451C292.959 22.4451 292.587 22.7891 292.014 23.4769C291.498 24.1075 290.867 24.9387 290.122 25.9705C289.377 27.0023 288.632 28.0341 287.886 29.0659C287.543 29.5245 287.227 29.9544 286.941 30.3556C278.228 42.508 268.053 57.6984 256.416 75.9269ZM327.697 100.518C329.245 99.7156 330.162 99.6583 330.448 100.346C330.735 101.034 330.19 101.865 328.815 102.84C326.636 104.158 323.828 105.448 320.388 106.709C317.006 107.913 313.968 108.285 311.274 107.827C308.58 107.311 307.175 105.133 307.061 101.292V100.862C307.118 100.06 307.061 99.6583 306.889 99.6583C306.717 99.601 306.23 99.8303 305.427 100.346C296.542 106.136 290.007 109.747 285.823 111.18C281.696 112.613 279.259 112.67 278.514 111.352C277.597 109.518 278.744 106.68 281.954 102.84C285.164 98.9418 289.291 95.2445 294.335 91.7478C299.437 88.2512 304.309 86.1589 308.952 85.471C313.596 84.7259 316.863 86.5602 318.755 90.974C318.926 91.5472 318.84 92.0631 318.497 92.5217C318.153 92.9803 317.694 93.2955 317.121 93.4675C316.548 93.6395 315.888 93.5248 315.143 93.1236C314.455 92.7223 313.968 92.2351 313.681 91.6619C313.681 91.5472 313.71 91.4326 313.767 91.3179C313.825 91.2033 313.882 91.0886 313.939 90.974C313.997 90.8593 314.054 90.7447 314.111 90.6301C314.169 90.5154 314.169 90.4008 314.111 90.2861C312.678 88.3372 310.213 88.0506 306.717 89.4263C303.22 90.802 299.523 92.9516 295.625 95.8751C291.727 98.7985 288.431 101.579 285.737 104.215C283.043 106.795 281.782 108.371 281.954 108.945C282.183 109.518 284.447 108.572 288.746 106.107C293.045 103.642 300.096 99.0278 309.898 92.2637C310.414 91.9771 310.93 91.8911 311.446 92.0058C312.019 92.0631 312.478 92.3497 312.822 92.8656C313.223 93.5535 313.252 94.2414 312.908 94.9292C310.729 99.6297 310.471 102.524 312.134 103.614C313.853 104.703 316.29 104.789 319.442 103.872C322.652 102.954 325.404 101.837 327.697 100.518ZM337.843 95.6171C337.728 95.7317 337.556 95.8177 337.327 95.8751C337.155 95.9324 336.954 95.9897 336.725 96.047C336.553 96.1043 336.438 96.219 336.381 96.391C335.636 97.4228 334.805 98.7698 333.888 100.432C332.97 102.095 332.197 103.786 331.566 105.505C330.993 107.168 330.764 108.601 330.878 109.804C330.993 110.951 331.738 111.524 333.114 111.524C337.528 111.065 342.515 108.916 348.075 105.075C353.635 101.235 358.422 97.6234 362.434 94.2414C363.179 93.6681 363.839 93.1522 364.412 92.6937C365.444 91.7765 366.676 90.8593 368.109 89.9422C369.542 89.025 370.918 88.4231 372.236 88.1365C373.555 87.8499 374.5 88.1652 375.074 89.0824C375.188 90.4581 374.93 92.1778 374.3 94.2414C373.211 99.1711 373.383 102.352 374.816 103.786C376.249 105.219 378.456 105.563 381.436 104.817C384.475 104.072 387.799 102.897 391.411 101.292C392.557 100.719 393.331 100.547 393.732 100.776C394.133 101.005 394.219 101.407 393.99 101.98C393.761 102.553 393.216 103.04 392.356 103.442C388.286 105.563 384.36 107.024 380.577 107.827C376.851 108.572 373.87 108.228 371.634 106.795C369.399 105.362 368.51 102.41 368.969 97.9387C369.255 95.9324 369.169 94.9006 368.711 94.8432C368.31 94.7859 367.249 95.5025 365.53 96.9928C365.472 97.0502 365.386 97.1075 365.272 97.1648C364.813 97.5661 364.297 97.996 363.724 98.4546C359.654 101.951 354.925 105.477 349.537 109.031C344.148 112.585 338.903 114.562 333.802 114.963C331.967 115.021 330.391 114.705 329.073 114.018C327.009 112.47 326.12 110.435 326.407 107.913C326.636 105.391 327.439 102.811 328.815 100.174C330.19 97.5374 331.48 95.3018 332.684 93.4675C332.97 92.9516 333.228 92.493 333.458 92.0918C334.031 91.2319 334.776 90.6014 335.693 90.2001C336.668 89.7416 337.499 89.5696 338.187 89.6842C338.817 89.7416 339.305 89.9422 339.648 90.2861C340.05 90.6301 340.136 91.2319 339.906 92.0918C339.677 92.9516 338.989 94.1267 337.843 95.6171ZM385.994 113.33C386.452 113.043 386.997 112.241 387.627 110.922C388.258 109.604 388.974 107.999 389.777 106.107C391.267 102.324 393.016 98.6265 395.022 95.0152C397.028 91.4039 399.292 89.369 401.815 88.9104C402.617 89.0824 403.219 89.4836 403.62 90.1142C404.021 90.6874 403.907 91.3752 403.276 92.1778C402.302 93.4962 401.442 94.5566 400.697 95.3591C400.009 96.1043 399.292 96.8495 398.547 97.5947C397.802 98.3399 396.885 99.2857 395.796 100.432C395.051 102.324 394.334 104.215 393.646 106.107C393.36 107.024 393.044 107.913 392.7 108.773C392.528 109.403 392.414 109.862 392.356 110.148C392.356 110.378 392.442 110.492 392.614 110.492C392.844 110.492 393.13 110.435 393.474 110.32C393.531 110.263 393.589 110.234 393.646 110.234C394.793 109.89 395.595 109.919 396.054 110.32C396.512 110.664 396.656 111.123 396.484 111.696C396.312 112.269 395.882 112.756 395.194 113.158C394.563 113.502 393.933 113.702 393.302 113.76C392.557 113.874 391.84 114.161 391.153 114.619C390.751 114.906 390.35 115.336 389.949 115.909C389.548 116.482 389.204 117.027 388.917 117.543C386.739 121.727 383.643 125.654 379.631 129.323C375.618 132.991 370.861 135.198 365.358 135.943C361.058 136.345 358.966 135.8 359.081 134.31C359.195 132.819 360.714 130.784 363.638 128.205C366.504 125.683 370.001 123.074 374.128 120.38C378.255 117.686 382.21 115.336 385.994 113.33ZM381.608 121.498C381.895 121.154 382.21 120.753 382.554 120.294C382.898 119.893 383.185 119.492 383.414 119.091C383.643 118.689 383.758 118.374 383.758 118.145C383.758 117.973 383.586 117.944 383.242 118.059C381.981 118.632 380.261 119.664 378.083 121.154C375.848 122.702 373.583 124.336 371.29 126.055C368.998 127.832 367.163 129.351 365.787 130.612C364.354 131.873 363.81 132.533 364.154 132.59C366.045 132.705 368.768 131.644 372.322 129.409C375.876 127.23 378.972 124.594 381.608 121.498ZM410.843 100.604C410.843 100.604 410.871 100.575 410.929 100.518C411.273 100.232 412.104 99.4577 413.422 98.1966L455.382 30.7855C458.478 28.8366 460.513 28.3493 461.487 29.3238C462.462 30.241 462.777 31.9607 462.433 34.4828C462.146 36.9477 461.573 39.4699 460.713 42.0494C459.853 44.6289 459.137 46.5778 458.564 47.8963C454.952 55.6348 450.195 63.316 444.29 70.9398C438.386 78.5064 432.683 85.1558 427.18 90.888C421.677 96.6202 417.75 100.547 415.4 102.668L410.327 110.32C408.837 112.499 408.407 113.416 409.037 113.072C409.668 112.785 410.957 111.753 412.906 109.976C417.492 105.677 422.451 101.206 427.782 96.5629C433.17 91.9198 438.186 88.0792 442.829 85.0411C447.529 81.9457 451.14 80.6273 453.663 81.0859C456.987 81.9457 457.704 85.7863 455.812 92.6077C454.436 97.996 453.835 102.066 454.007 104.817C454.236 107.569 455.01 109.145 456.328 109.546C459.882 110.464 466.331 108.171 475.674 102.668C476.248 102.324 476.735 102.295 477.136 102.582C477.595 102.868 477.795 103.298 477.738 103.872C477.738 104.387 477.365 104.903 476.62 105.419C471.633 108.572 467.334 110.865 463.723 112.298C460.169 113.731 457.217 114.075 454.866 113.33C449.535 111.897 448.704 104.416 452.373 90.888C453.519 86.3595 452.975 84.3533 450.739 84.8692C448.504 85.3851 445.294 87.3913 441.109 90.888C436.924 94.3273 432.453 98.2826 427.696 102.754C422.25 107.798 417.349 112.069 412.992 115.565C408.636 119.062 405.77 120.38 404.394 119.521C403.42 118.833 403.018 117.858 403.19 116.597C403.362 115.393 403.821 114.104 404.566 112.728C405.254 111.352 405.913 110.177 406.544 109.202C406.773 108.859 406.974 108.543 407.146 108.257L409.123 105.075C409.639 104.043 409.954 103.126 410.069 102.324C410.184 101.579 410.442 101.005 410.843 100.604ZM435.09 72.2296C427.581 83.5221 428.183 83.7227 436.896 72.8315C442.915 65.8382 447.93 58.5869 451.943 51.0777C454.293 46.4919 455.583 43.6831 455.812 42.6513C456.099 41.6195 455.64 41.8488 454.436 43.3391C453.233 44.8295 451.628 47.0364 449.621 49.9599C447.672 52.8833 445.637 55.9787 443.517 59.2461C441.396 62.4561 439.561 65.2936 438.014 67.7584C436.523 70.0513 435.549 71.5417 435.09 72.2296ZM495.966 72.6595C497.514 72.7742 498.231 73.2614 498.116 74.1212C498.001 74.9237 497.428 75.7549 496.396 76.6147C495.422 77.4173 494.361 77.9618 493.215 78.2484C492.126 78.4777 491.323 78.1051 490.807 77.1306C490.693 76.844 490.722 76.5861 490.893 76.3568C491.123 76.0702 491.409 75.8409 491.753 75.6689C492.155 75.4396 492.498 75.239 492.785 75.067C493.014 75.0097 493.186 74.9524 493.301 74.8951C493.416 74.8378 493.473 74.7804 493.473 74.7231C493.53 74.0926 493.788 73.5767 494.247 73.1754C494.705 72.7742 495.279 72.6022 495.966 72.6595ZM476.792 113.502C474.557 113.502 473.238 112.785 472.837 111.352C472.436 109.919 472.636 108.113 473.439 105.935C474.184 103.7 475.244 101.378 476.62 98.9705C477.996 96.5056 479.372 94.27 480.747 92.2637C482.123 90.2001 483.212 88.6238 484.015 87.5347C484.244 87.1334 484.445 86.8468 484.617 86.6748C484.273 85.7577 484.588 84.7545 485.562 83.6654C486.537 82.5189 487.683 81.6878 489.002 81.1719C490.32 80.5987 491.266 80.6846 491.839 81.4298C492.241 82.0604 492.327 82.6623 492.097 83.2355C491.868 83.8087 491.553 84.3533 491.151 84.8692C491.037 84.9838 490.922 85.1271 490.807 85.2991C488.629 88.3945 486.25 91.8625 483.671 95.7031C481.149 99.4864 479.257 102.668 477.996 105.247C477.021 107.483 477.623 108.715 479.802 108.945C482.037 109.174 484.903 108.83 488.4 107.913C491.954 106.996 495.193 106.021 498.116 104.989C501.097 103.9 502.874 103.184 503.447 102.84C504.078 102.496 504.565 102.438 504.909 102.668C505.31 102.897 505.482 103.27 505.425 103.786C505.367 104.244 504.966 104.731 504.221 105.247C500.495 107.311 495.623 109.202 489.604 110.922C483.642 112.642 479.372 113.502 476.792 113.502ZM489.862 131.128C489.174 131.759 488.486 131.873 487.798 131.472C487.11 131.128 486.623 130.526 486.336 129.667C485.992 128.807 486.05 127.976 486.508 127.173C486.795 126.542 492.097 117.915 502.415 101.292C502.473 101.005 502.616 100.719 502.845 100.432C503.074 100.088 503.304 99.8016 503.533 99.5723C510.526 88.2798 518.064 76.3568 526.147 63.8032C534.229 51.1923 541.566 40.1864 548.158 30.7855C554.751 21.3847 559.25 15.8244 561.658 14.1047C564.008 13.5315 565.441 13.8468 565.957 15.0506C566.53 16.2543 566.559 17.888 566.043 19.9516C565.584 21.9579 564.954 23.9069 564.151 25.7985C563.406 27.6328 562.862 28.8939 562.518 29.5818C557.989 38.696 550.939 49.8452 541.366 63.0294C531.85 76.2135 520.558 88.9964 507.488 101.378C505.654 104.301 503.934 106.996 502.329 109.46C500.266 112.556 498.89 114.791 498.202 116.167C497.457 117.543 498.001 117.543 499.836 116.167C501.613 114.849 505.281 111.639 510.842 106.537C526.605 91.8625 538.156 83.2355 545.493 80.656C546.639 80.3694 547.385 80.5127 547.729 81.0859C548.13 81.6018 548.416 82.2897 548.588 83.1495C548.646 83.2641 548.674 83.4074 548.674 83.5794C548.904 85.4137 547.299 87.42 543.859 89.5983C540.42 91.7192 536.809 93.6681 533.025 95.4451C531.019 96.4196 529.357 97.2794 528.038 98.0246C527.064 98.8272 526.347 99.601 525.889 100.346C525.487 101.091 525.058 102.123 524.599 103.442C523.682 105.734 522.879 108.429 522.191 111.524C521.504 114.562 521.59 117.228 522.449 119.521C523.309 121.813 525.631 122.931 529.414 122.874C530.102 122.817 530.618 122.96 530.962 123.304C531.363 123.648 531.449 124.02 531.22 124.422C530.99 124.823 530.331 125.081 529.242 125.195C523.51 125.367 519.841 123.963 518.236 120.982C516.631 118.001 516.517 114.132 517.892 109.374C518.408 107.54 518.523 106.566 518.236 106.451C518.007 106.279 517.118 106.91 515.571 108.343C511.558 112.011 507.202 115.881 502.501 119.95C497.858 124.078 494.275 127.23 491.753 129.409C490.664 130.383 490.034 130.956 489.862 131.128ZM523.481 75.9269C520.959 79.7675 519.526 82.1177 519.182 82.9775C518.895 83.78 520.443 82.175 523.825 78.1625C531.793 68.8189 538.614 59.9053 544.289 51.4216C549.964 42.8806 554.378 35.4573 557.531 29.1519C558.734 26.7443 559.537 25.0247 559.938 23.9929C560.339 22.961 560.425 22.4451 560.196 22.4451C560.024 22.4451 559.652 22.7891 559.078 23.4769C558.562 24.1075 557.932 24.9387 557.187 25.9705C556.442 27.0023 555.696 28.0341 554.951 29.0659C554.607 29.5245 554.292 29.9544 554.005 30.3556C545.292 42.508 535.118 57.6984 523.481 75.9269Z" fill="white"/>
</svg>
