<svg width="479" height="479" viewBox="0 0 479 479" fill="none" xmlns="http://www.w3.org/2000/svg">
<g filter="url(#filter0_d_514_16731)">
<circle cx="239.286" cy="225.286" r="64.2857" fill="white" fill-opacity="0.02" shape-rendering="crispEdges"/>
</g>
<g clip-path="url(#clip0_514_16731)">
<path fill-rule="evenodd" clip-rule="evenodd" d="M266.408 193.143H212.167C209.393 193.143 207.145 195.391 207.145 198.165V252.406C207.145 255.18 209.393 257.429 212.167 257.429H266.408C269.182 257.429 271.43 255.18 271.43 252.406V198.165C271.43 195.391 269.182 193.143 266.408 193.143ZM244.942 250.421V243.485C246.2 244.54 247.567 245.331 249.042 245.859C250.517 246.386 252.006 246.65 253.51 246.65C254.393 246.65 255.163 246.57 255.821 246.411C256.479 246.252 257.028 246.032 257.469 245.75C257.91 245.469 258.239 245.136 258.456 244.754C258.673 244.371 258.782 243.955 258.782 243.507C258.782 242.9 258.608 242.358 258.261 241.882C257.914 241.405 257.44 240.964 256.84 240.559C256.24 240.155 255.528 239.765 254.703 239.389C253.879 239.013 252.99 238.631 252.035 238.24C249.606 237.229 247.795 235.993 246.602 234.534C245.408 233.075 244.812 231.312 244.812 229.246C244.812 227.627 245.137 226.236 245.788 225.073C246.439 223.91 247.325 222.953 248.445 222.201C249.566 221.45 250.864 220.897 252.339 220.543C253.814 220.189 255.376 220.012 257.024 220.012C258.644 220.012 260.08 220.11 261.33 220.305C262.581 220.5 263.735 220.8 264.79 221.204V227.685C264.27 227.324 263.702 227.006 263.087 226.731C262.473 226.457 261.84 226.229 261.189 226.049C260.539 225.868 259.891 225.734 259.248 225.648C258.604 225.561 257.994 225.518 257.415 225.518C256.62 225.518 255.896 225.593 255.246 225.745C254.595 225.897 254.045 226.11 253.597 226.385C253.149 226.659 252.802 226.988 252.556 227.371C252.31 227.754 252.187 228.183 252.187 228.66C252.187 229.181 252.325 229.646 252.599 230.058C252.874 230.47 253.264 230.86 253.771 231.229C254.277 231.597 254.891 231.958 255.614 232.312C256.338 232.667 257.155 233.031 258.066 233.407C259.309 233.927 260.427 234.48 261.417 235.065C262.408 235.65 263.257 236.311 263.966 237.048C264.674 237.785 265.217 238.627 265.593 239.573C265.969 240.52 266.157 241.622 266.157 242.879C266.157 244.613 265.828 246.068 265.17 247.246C264.512 248.424 263.619 249.377 262.491 250.107C261.363 250.837 260.05 251.36 258.554 251.678C257.057 251.996 255.477 252.155 253.814 252.155C252.108 252.155 250.484 252.011 248.944 251.722C247.404 251.433 246.07 250.999 244.942 250.421ZM242.301 226.225H233.382V251.653H226.316V226.225H217.44V220.515H242.301V226.225Z" fill="white" fill-opacity="0.21"/>
</g>
<defs>
<filter id="filter0_d_514_16731" x="0.258377" y="0.237707" width="478.056" height="478.055" filterUnits="userSpaceOnUse" color-interpolation-filters="sRGB">
<feFlood flood-opacity="0" result="BackgroundImageFix"/>
<feColorMatrix in="SourceAlpha" type="matrix" values="0 0 0 0 0 0 0 0 0 0 0 0 0 0 0 0 0 0 127 0" result="hardAlpha"/>
<feOffset dy="13.9793"/>
<feGaussianBlur stdDeviation="87.3708"/>
<feComposite in2="hardAlpha" operator="out"/>
<feColorMatrix type="matrix" values="0 0 0 0 0 0 0 0 0 0 0 0 0 0 0 0 0 0 0.5 0"/>
<feBlend mode="normal" in2="BackgroundImageFix" result="effect1_dropShadow_514_16731"/>
<feBlend mode="normal" in="SourceGraphic" in2="effect1_dropShadow_514_16731" result="shape"/>
</filter>
<clipPath id="clip0_514_16731">
<rect width="64.2857" height="64.2857" fill="white" transform="translate(207.145 193.143)"/>
</clipPath>
</defs>
</svg>
